<?xml version="1.0" encoding="UTF-8" standalone="no"?>
<svg width="28px" height="20px" viewBox="0 0 28 20" version="1.1" xmlns="http://www.w3.org/2000/svg" xmlns:xlink="http://www.w3.org/1999/xlink">
    <!-- Generator: Sketch 39.1 (31720) - http://www.bohemiancoding.com/sketch -->
    <title>social-email</title>
    <desc>Created with Sketch.</desc>
    <defs></defs>
    <g id="Page-1" stroke="none" stroke-width="1" fill="none" fill-rule="evenodd">
        <g id="social-email" fill="#ED2A7A">
            <g id="Shape">
                <g id="Social-Icons">
                    <g id="social-icons">
                        <g id="mail">
                            <path d="M2.6874246,6.164897 C3.04164382,6.39207075 4.10928764,7.0669665 5.89054798,8.1890615 C7.6718082,9.3111565 9.03632876,10.1752184 9.98430135,10.7810729 C10.0884383,10.847499 10.3097534,10.991858 10.6482466,11.2143244 C10.9867398,11.436965 11.2680823,11.617065 11.4918905,11.7542759 C11.7158905,11.8914866 11.9866849,12.0454348 12.3044657,12.2157714 C12.6222466,12.386108 12.9218082,12.5140785 13.2029589,12.5989853 C13.4843013,12.6844151 13.7447398,12.7267814 13.9842739,12.7267814 L14,12.7267814 L14.0157261,12.7267814 C14.2552602,12.7267814 14.5156987,12.6844151 14.7970411,12.5989853 C15.0781918,12.5140785 15.3779452,12.3859338 15.6955343,12.2157714 C16.0131233,12.0452604 16.2839177,11.8914866 16.5079177,11.7542759 C16.7319177,11.617065 17.0130685,11.436965 17.3515617,11.2143244 C17.6900548,10.9916836 17.9115617,10.847499 18.0156987,10.7810729 C18.9738356,10.175044 21.4115617,8.63626062 25.3281095,6.16454838 C26.0885206,5.6817825 26.7236987,5.09929038 27.2342192,4.41742075 C27.7449315,3.73589975 28,3.02090413 28,2.27278275 C28,1.64775 27.752411,1.11268025 27.2576164,0.66757325 C26.7628219,0.22246625 26.1767398,0 25.4999452,0 L2.49986304,0 C1.69783562,0 1.08068495,0.2461775 0.648411018,0.738532375 C0.216136964,1.23106163 0,1.84667963 0,2.58521187 C0,3.18182612 0.286520564,3.82830338 0.859369891,4.52429525 C1.43221922,5.220287 2.04169865,5.76721238 2.6874246,6.164897 L2.6874246,6.164897 Z M26.4373699,7.68467662 C23.0209863,9.78677413 20.4269589,11.420402 18.6564383,12.5852119 C18.0626849,12.9828966 17.5809315,13.2932336 17.2109863,13.5155256 C16.8412329,13.7381662 16.3491233,13.9653399 15.7344657,14.1973952 C15.12,14.4294506 14.5471507,14.5453911 14.0159177,14.5453911 L14,14.5453911 L13.9842739,14.5453911 C13.4530411,14.5453911 12.88,14.4294506 12.2655343,14.1973952 C11.6510685,13.9653399 11.1587671,13.7381662 10.7890137,13.5155256 C10.4192602,13.2932336 9.93750685,12.9828966 9.34375336,12.5852119 C7.9374246,11.64775 5.34895887,10.0141221 1.57816438,7.68467662 C0.984411018,7.32499962 0.458356182,6.91284412 0,6.44890775 L0,17.7270429 C0,18.35225 0.244712364,18.8871454 0.734328764,19.3322524 C1.22394516,19.7775337 1.81252056,20 2.50005484,20 L25.500137,20 C26.1874794,20 26.7760548,19.7775337 27.2656712,19.3322524 C27.7554794,18.8869711 28,18.35225 28,17.7270429 L28,6.44890775 C27.552,6.903255 27.0313151,7.3154105 26.4373699,7.68467662 L26.4373699,7.68467662 Z" id="Shape"></path>
                        </g>
                    </g>
                </g>
            </g>
        </g>
    </g>
</svg>