<?xml version="1.0" encoding="UTF-8" standalone="no"?>
<svg width="790px" height="204px" viewBox="0 0 790 204" version="1.1" xmlns="http://www.w3.org/2000/svg" xmlns:xlink="http://www.w3.org/1999/xlink">
    <!-- Generator: Sketch 3.8.3 (29802) - http://www.bohemiancoding.com/sketch -->
    <title>logo</title>
    <desc>Created with Sketch.</desc>
    <defs></defs>
    <g id="Page-1" stroke="none" stroke-width="1" fill="none" fill-rule="evenodd">
        <g id="logo">
            <g id="Page-1">
                <g id="logo">
                    <g id="Group">
                        <path d="M22.119,133.484 C22.119,137.863 22.337,143.119 28.251,143.119 C33.287,143.119 34.601,140.711 34.601,133.484 L34.601,116.84 L56.719,116.84 L56.719,128.447 C56.719,141.805 54.31,150.346 49.493,155.602 C44.675,160.858 37.667,162.829 28.251,162.829 C20.367,162.829 13.14,160.638 8.103,155.164 C3.066,149.689 0,140.711 0,127.351 L0,75.012 C0,61.654 3.066,52.675 8.103,47.2 C13.14,41.725 20.367,39.535 28.251,39.535 C37.667,39.535 44.675,41.506 49.493,46.762 C54.31,52.018 56.719,60.558 56.719,73.917 L56.719,83.334 L34.601,83.334 L34.601,68.881 C34.601,61.654 33.287,59.245 28.251,59.245 C22.337,59.245 22.119,64.501 22.119,68.881 L22.119,133.484" id="Fill-1" fill="#211E1F"></path>
                        <path d="M77.964,183.852 C78.183,184.071 78.621,184.071 79.278,184.071 C80.373,184.291 85.848,184.728 89.352,182.1 C92.855,179.472 95.264,175.75 96.579,171.15 C97.235,168.961 97.455,166.771 97.455,164.581 L77.088,41.287 L98.768,41.287 L107.528,114.869 L107.966,121.001 L108.842,121.001 L109.28,114.869 L118.04,41.287 L139.72,41.287 L118.478,170.055 C117.383,178.596 114.098,186.918 108.842,193.269 C103.586,199.62 96.579,204 87.819,204 L85.191,204 C83.22,204 80.592,203.781 77.964,203.562 L77.964,183.852" id="Fill-3" fill="#211E1F"></path>
                        <path d="M186.805,134.798 C186.805,138.959 190.09,142.024 193.375,142.024 C196.66,142.024 199.288,138.959 199.288,134.798 L199.288,67.566 C199.288,63.406 196.66,60.34 193.375,60.34 C190.09,60.34 186.805,64.062 186.805,67.566 L186.805,134.798 L186.805,134.798 L186.805,134.798 Z M164.687,0.116 L186.805,0.116 L186.805,49.171 C190.528,45.667 193.813,43.039 198.193,41.068 C200.164,39.973 202.354,39.535 204.325,39.535 C210.457,39.535 214.618,43.039 217.464,47.419 C220.092,52.018 221.407,57.93 221.407,62.968 L221.407,139.396 C221.407,144.433 220.092,150.346 217.464,154.726 C214.618,159.325 210.457,162.829 204.325,162.829 C200.164,162.829 195.784,160.42 192.5,158.012 C190.528,156.478 188.776,154.945 186.805,153.193 L186.805,161.077 L164.687,161.077 L164.687,0.116 L164.687,0.116 L164.687,0.116 Z" id="Fill-5" fill="#211E1F"></path>
                        <path d="M270.462,87.933 L286.449,87.933 L286.449,71.07 C286.449,66.471 285.573,63.186 283.382,60.558 C282.288,59.464 280.536,58.806 278.565,58.806 C274.404,58.806 272.652,61.654 271.557,64.938 C270.9,66.69 270.681,68.661 270.462,71.07 L270.462,87.933 L270.462,87.933 L270.462,87.933 Z M307.034,118.154 L307.034,131.951 C306.377,143.557 302.873,151.66 294.989,158.012 C291.047,161.296 285.573,162.829 278.346,162.829 C264.111,162.829 256.884,154.945 253.38,147.061 C251.41,142.463 250.095,137.207 249.876,131.294 L249.876,71.07 C250.534,59.464 254.256,50.923 262.14,44.353 C265.863,41.068 271.338,39.535 278.565,39.535 C292.799,39.535 300.026,47.419 303.53,55.084 C305.501,59.682 306.815,64.719 307.034,70.413 L307.034,105.233 L270.462,105.233 L270.462,131.294 C270.681,135.892 271.995,139.178 273.966,141.587 C275.061,142.681 276.594,143.339 278.565,143.339 C282.726,143.339 284.697,140.711 285.573,137.426 C286.229,135.674 286.449,133.703 286.449,131.294 L286.449,118.154 L307.034,118.154 L307.034,118.154 L307.034,118.154 Z" id="Fill-6" fill="#211E1F"></path>
                        <path d="M379.522,64.062 C377.551,63.406 375.361,63.186 373.39,63.186 C369.886,63.186 365.725,63.625 362.221,66.909 C358.061,70.413 357.404,74.136 357.404,77.859 L357.404,161.077 L335.285,161.077 L335.285,41.287 L357.404,41.287 L357.404,54.646 C357.623,53.113 359.156,49.39 362.66,45.886 C366.164,42.601 371.419,39.535 379.522,39.535 L379.522,64.062" id="Fill-7" fill="#211E1F"></path>
                        <path d="M434.272,62.749 C433.177,60.121 431.425,57.93 427.921,57.93 C425.074,57.93 423.322,60.121 422.446,62.749 C421.351,65.377 421.132,69.099 421.132,71.946 C421.132,75.669 423.103,79.611 425.95,83.115 C428.578,86.619 432.082,90.123 435.585,93.408 C440.185,98.007 445.66,103.262 449.382,109.176 C453.105,115.307 455.952,122.095 455.952,129.98 C455.952,137.644 454.2,145.748 449.82,151.879 C445.221,158.23 438.213,162.829 427.702,162.829 C414.343,162.829 406.459,156.697 402.08,149.252 C397.7,141.805 396.824,132.607 396.824,126.257 L417.409,126.257 C417.409,129.542 417.628,134.14 419.161,137.644 C420.694,141.367 423.103,144.433 427.702,144.433 C434.053,144.433 435.367,136.988 435.367,129.98 C435.367,122.753 428.359,115.526 421.57,108.737 C416.314,103.7 411.277,99.101 407.335,93.189 C403.394,87.276 400.546,80.706 400.546,71.946 C400.546,64.938 401.861,56.836 406.021,50.485 C410.182,44.353 416.971,39.754 427.483,39.535 C440.404,39.316 447.63,44.134 451.353,50.485 C455.076,56.836 455.733,65.157 455.733,71.946 L435.148,71.946 C435.148,69.099 435.148,65.595 434.272,62.749 L434.272,62.749 Z" id="Fill-8" fill="#FF1D7C"></path>
                        <path d="M503.038,133.484 C503.038,137.863 503.257,143.119 509.169,143.119 C514.207,143.119 515.521,140.711 515.521,133.484 L515.521,116.84 L537.639,116.84 L537.639,128.447 C537.639,141.805 535.23,150.346 530.412,155.602 C525.594,160.858 518.586,162.829 509.169,162.829 C501.286,162.829 494.059,160.638 489.022,155.164 C483.985,149.689 480.919,140.711 480.919,127.351 L480.919,75.012 C480.919,61.654 483.985,52.675 489.022,47.2 C494.059,41.725 501.286,39.535 509.169,39.535 C518.586,39.535 525.594,41.506 530.412,46.762 C535.23,52.018 537.639,60.558 537.639,73.917 L537.639,83.334 L515.521,83.334 L515.521,68.881 C515.521,61.654 514.207,59.245 509.169,59.245 C503.257,59.245 503.038,64.501 503.038,68.881 L503.038,133.484" id="Fill-9" fill="#FF1D7C"></path>
                        <path d="M599.175,71.07 C599.395,66.471 598.519,63.186 596.329,60.558 C595.234,59.464 593.482,58.806 591.511,58.806 C587.35,58.806 585.598,61.654 584.722,64.938 C584.065,66.69 583.846,68.661 584.065,71.07 L584.065,131.294 C583.846,135.892 584.941,139.178 586.912,141.587 C588.007,142.681 589.54,143.339 591.511,143.339 C595.671,143.339 597.643,140.711 598.519,137.426 C599.175,135.674 599.395,133.703 599.175,131.294 L599.175,71.07 L599.175,71.07 L599.175,71.07 Z M619.98,131.951 C619.323,143.557 615.819,151.66 608.154,158.012 C604.212,161.296 598.738,162.829 591.511,162.829 C577.276,162.829 570.268,154.945 566.764,147.061 C564.793,142.463 563.479,137.207 563.26,131.294 L563.26,71.07 C563.917,59.464 567.421,50.923 575.086,44.353 C578.809,41.068 584.284,39.535 591.511,39.535 C605.746,39.535 612.972,47.419 616.476,55.084 C618.447,59.682 619.761,64.719 619.98,70.413 L619.98,131.951 L619.98,131.951 L619.98,131.951 Z" id="Fill-10" fill="#FF1D7C"></path>
                        <path d="M683.052,71.07 C683.271,66.471 682.395,63.186 680.206,60.558 C679.111,59.464 677.359,58.806 675.387,58.806 C671.227,58.806 669.475,61.654 668.599,64.938 C667.942,66.69 667.723,68.661 667.942,71.07 L667.942,131.294 C667.723,135.892 668.818,139.178 670.789,141.587 C671.883,142.681 673.417,143.339 675.387,143.339 C679.548,143.339 681.519,140.711 682.395,137.426 C683.052,135.674 683.271,133.703 683.052,131.294 L683.052,71.07 L683.052,71.07 L683.052,71.07 Z M703.857,131.951 C703.2,143.557 699.696,151.66 692.031,158.012 C688.089,161.296 682.615,162.829 675.387,162.829 C661.153,162.829 654.145,154.945 650.641,147.061 C648.67,142.463 647.356,137.207 647.137,131.294 L647.137,71.07 C647.794,59.464 651.298,50.923 658.963,44.353 C662.686,41.068 668.161,39.535 675.387,39.535 C689.623,39.535 696.849,47.419 700.353,55.084 C702.324,59.682 703.638,64.719 703.857,70.413 L703.857,131.951 L703.857,131.951 L703.857,131.951 Z" id="Fill-11" fill="#FF1D7C"></path>
                        <path d="M754.666,134.798 C754.666,138.302 757.951,142.024 761.236,142.024 C764.52,142.024 767.148,138.959 767.148,134.798 L767.148,67.566 C767.148,63.406 764.52,60.34 761.236,60.34 C757.951,60.34 754.666,63.406 754.666,67.566 L754.666,134.798 L754.666,134.798 L754.666,134.798 Z M732.547,41.287 L754.666,41.287 L754.666,49.171 C758.388,45.667 761.673,43.039 766.053,41.068 C768.024,39.973 770.214,39.535 772.185,39.535 C778.317,39.535 782.478,43.039 785.325,47.419 C787.953,52.018 789.267,57.93 789.267,62.968 L789.267,139.396 C789.267,144.433 787.953,150.346 785.325,154.726 C782.478,159.325 778.317,162.829 772.185,162.829 C768.024,162.829 763.644,160.42 760.36,158.012 C758.388,156.478 756.636,154.945 754.666,153.193 L754.666,202.248 L732.547,202.248 L732.547,41.287 L732.547,41.287 L732.547,41.287 Z" id="Fill-12" fill="#FF1D7C"></path>
                    </g>
                </g>
            </g>
        </g>
    </g>
</svg>