<?xml version="1.0" encoding="UTF-8" standalone="no"?>
<svg width="27px" height="23px" viewBox="0 0 27 23" version="1.1" xmlns="http://www.w3.org/2000/svg" xmlns:xlink="http://www.w3.org/1999/xlink">
    <!-- Generator: Sketch 39.1 (31720) - http://www.bohemiancoding.com/sketch -->
    <title>Shape</title>
    <desc>Created with Sketch.</desc>
    <defs></defs>
    <g id="Social-Icons" stroke="none" stroke-width="1" fill="none" fill-rule="evenodd">
        <g id="social-icons" transform="translate(-588.000000, -290.000000)" fill="#000000">
            <g id="reddit-light" transform="translate(580.000000, 280.000000)">
                <path d="M18.0812945,27.7968363 C18.0620017,27.8007479 18.0419669,27.8054418 18.0234162,27.8124826 C17.7525751,27.8688091 17.5759719,28.1457479 17.6301401,28.4320744 C17.6501749,28.538469 17.701375,28.6370404 17.7770621,28.7121424 C18.8982699,29.8942172 20.5678381,30.08119 21.9027506,30.0858839 C21.9220434,30.0866662 21.9420782,30.0858839 21.961371,30.0858839 C21.9702754,30.0866662 21.9799218,30.0866662 21.9903102,30.0858839 L22.0044088,30.0858839 C23.3467416,30.0858839 25.0259562,29.9059519 26.1590365,28.7121424 C26.3556745,28.5087411 26.3593847,28.1746935 26.1664568,27.9673805 C26.0588624,27.8508159 25.9067462,27.7937071 25.7538879,27.8124826 C25.6418413,27.8320404 25.5401832,27.8907139 25.4637541,27.9791152 C24.6742338,28.8122785 23.282927,29.0258499 22.0474465,29.0328907 L21.9903102,29.0328907 C21.9799218,29.0321084 21.9702754,29.0321084 21.961371,29.0328907 L21.888652,29.0328907 C20.6576238,29.0250676 19.2722532,28.8091492 18.4864431,27.9791152 C18.385527,27.8555098 18.2356368,27.7882309 18.0812945,27.7968363 L18.0812945,27.7968363 Z M25.8985838,21.4319385 C24.9109415,21.4319385 24.1028705,22.2815303 24.1028705,23.3243534 C24.1028705,24.3663942 24.9109415,25.2167684 25.8985838,25.2167684 C26.8862262,25.2167684 27.6935552,24.3663942 27.6935552,23.3243534 C27.6935552,22.2823126 26.8862262,21.4319385 25.8985838,21.4319385 L25.8985838,21.4319385 Z M18.0523553,21.4319385 C17.0632289,21.4319385 16.256642,22.2823126 16.256642,23.3243534 C16.256642,24.3663942 17.0632289,25.2167684 18.0523553,25.2167684 C19.0399977,25.2167684 19.8473267,24.3663942 19.8473267,23.3243534 C19.8473267,22.2815303 19.0399977,21.4319385 18.0523553,21.4319385 L18.0523553,21.4319385 Z M32.0077194,19.1882651 C33.0940517,19.1882651 33.9614852,20.1027889 33.9614852,21.2488773 C33.9614852,21.913061 33.6654151,22.5029249 33.2090664,22.8823466 C32.7853671,21.6400338 31.9617135,20.5166324 30.8642507,19.5856801 C31.1833237,19.3345576 31.5728896,19.1882651 32.0077194,19.1882651 L32.0077194,19.1882651 Z M11.9135386,19.1882651 C12.3231393,19.1882651 12.6889603,19.330646 12.9991289,19.5551699 C11.9061183,20.4728229 11.0802386,21.5821426 10.6402146,22.80568 C10.2254196,22.4278228 9.9597728,21.8778569 9.9597728,21.2488773 C9.9597728,20.1027889 10.8286903,19.1882651 11.9135386,19.1882651 L11.9135386,19.1882651 Z M21.9175912,17.6924828 C24.9012951,17.6924828 27.5874448,18.5420746 29.5033671,19.8594896 C31.4192893,21.1784691 32.5286246,22.9245915 32.5286246,24.8201357 C32.5286246,26.7156799 31.4192893,28.4782309 29.5033671,29.7964281 C27.5874448,31.1138431 24.9012951,31.9485709 21.9175912,31.9485709 C18.9331453,31.9485709 16.2469956,31.1138431 14.3310733,29.7964281 C12.4158931,28.4782309 11.2768766,26.7156799 11.2768766,24.8201357 C11.2768766,22.9245915 12.4158931,21.1784691 14.3310733,19.8594896 C16.2469956,18.5420746 18.9331453,17.6924828 21.9175912,17.6924828 L21.9175912,17.6924828 Z M30.7766911,11.0686394 C31.5751157,11.0686394 32.2102936,11.7515986 32.2102936,12.5949319 C32.2102936,13.4374829 31.5751157,14.1063605 30.7766911,14.1063605 C29.9760404,14.1063605 29.3438306,13.4374829 29.3438306,12.5949319 C29.3438306,11.7515986 29.9760404,11.0686394 30.7766911,11.0686394 L30.7766911,11.0686394 Z M30.7766911,10.0007823 C29.7764342,10.0007823 28.9060327,10.652449 28.5335335,11.5724489 L23.9878558,10.4427891 C23.9366557,10.4240136 23.8824875,10.4130612 23.8283193,10.4114966 C23.6227769,10.432619 23.4498838,10.5843877 23.3942315,10.7940476 L21.6133588,16.6543536 C18.6170404,16.7083332 15.9012095,17.5430611 13.8680464,18.9136733 C13.3463991,18.42551 12.6652153,18.1344896 11.9135386,18.1344896 C10.2877502,18.1344896 8.961,19.5332651 8.961,21.2488773 C8.961,22.3621086 9.52791116,23.3470405 10.3656634,23.9040473 C10.3181734,24.2021085 10.2781038,24.5119044 10.2781038,24.8193534 C10.2781038,27.1522105 11.6708947,29.213605 13.7812289,30.6655778 C15.8923051,32.1167682 18.7572841,33.0007818 21.9175912,32.9999995 C25.0778983,32.9999995 27.9421353,32.1167682 30.0532115,30.6655778 C32.1642878,29.213605 33.5273974,27.1522105 33.5273974,24.8193534 C33.5273974,24.528333 33.5110728,24.2318364 33.4695191,23.9502038 C34.3599554,23.4088432 34.961,22.4035711 34.961,21.2488773 C34.961,19.5332651 33.6349918,18.1344896 32.0077194,18.1344896 C31.238976,18.1344896 30.5496298,18.450544 30.0242724,18.9590474 C28.0853472,17.6338094 25.5179223,16.7975169 22.670752,16.6692175 L24.2045286,11.5873129 L28.3450578,12.6097959 C28.3532201,14.0148298 29.4417786,15.1585713 30.7766911,15.1585713 C32.1160558,15.1585713 33.2090664,14.0070067 33.2090664,12.5941496 C33.2090664,11.1820748 32.1153138,10 30.7766911,10 L30.7766911,10.0007823 Z" id="Shape"></path>
            </g>
        </g>
    </g>
</svg>